<svg xmlns="http://www.w3.org/2000/svg" width="224.225" height="39.026" viewBox="0 0 224.225 39.026">
  <g id="Group_2503" data-name="Group 2503" transform="translate(0 0)">
    <path id="Path_1593" data-name="Path 1593" d="M0,39.026,42.713,19.187l-4.287-.548-5.478-.7L10.8,14.914Z" fill="#d2a1af"/>
    <path id="Path_1594" data-name="Path 1594" d="M41.667,11.344l-5.478-.7L14.038,7.619,3.274,31.716l42.68-19.824Z" fill="#a4445f"/>
    <path id="Path_1595" data-name="Path 1595" d="M17.447,0,6.67,24.116,49.362,4.273l-4.287-.548-5.478-.7Z" fill="#8e1537"/>
    <path id="Path_1596" data-name="Path 1596" d="M115.6,19.544,99.846,6.387V38.8h4.31V15.154L115.6,24.993l11.444-9.839V38.761h4.31V6.387Z" fill="#13120d"/>
    <path id="Path_1597" data-name="Path 1597" d="M192.716,38.77h4.31V15.727l27.2,23.084V6.423h-4.31V29.662L192.716,6.37Z" fill="#13120d"/>
    <path id="Path_1598" data-name="Path 1598" d="M159.637,6.42l-9.476,12.29L140.684,6.42h-5.448l11.822,15.312.971,1.2v15.83h4.31V22.842l.882-1.117L165.037,6.42Z" fill="#13120d"/>
    <rect id="Rectangle_1047" data-name="Rectangle 1047" width="4.31" height="32.258" transform="translate(90.855 6.462)" fill="#13120d"/>
    <path id="Path_1599" data-name="Path 1599" d="M54.665,6.412V38.749h4.309V24.619h22.89v14.13h4.31V6.419h-4.31v13.89H58.974V6.412Z" fill="#13120d"/>
    <path id="Path_1600" data-name="Path 1600" d="M159.8,33.4l-2.767,5.378h4.822l11.09-23.023,11.065,23.023h4.82L186.1,33.4,172.95,6.381Z" fill="#13120d"/>
  </g>
</svg>
