<svg xmlns="http://www.w3.org/2000/svg" xmlns:xlink="http://www.w3.org/1999/xlink" width="198.708" height="43.574" viewBox="0 0 198.708 43.574">
  <defs>
    <clipPath id="clip-path">
      <rect id="Rectangle_1044" data-name="Rectangle 1044" width="198.708" height="43.573" transform="translate(0 0)" fill="none"/>
    </clipPath>
  </defs>
  <g id="Group_2499" data-name="Group 2499" transform="translate(0 0)">
    <path id="Path_1579" data-name="Path 1579" d="M28.283,0,17.257,24.624l43.62-20.26L56.5,3.8l-5.594-.712Z" fill="#8e1537"/>
    <path id="Path_1580" data-name="Path 1580" d="M11.445,43.573l43.62-20.26-4.378-.56-5.594-.712L22.471,18.949Z" fill="#d2a1af"/>
    <path id="Path_1581" data-name="Path 1581" d="M0,36.937,43.62,16.675l-4.378-.559L33.648,15.4,11.026,12.313Z" fill="#a4445f"/>
    <path id="Path_1582" data-name="Path 1582" d="M102.712,38.03l-2.771,5.388h4.81l11.077-22.994,11.051,22.994h4.811l-2.746-5.387L115.828,11.072Z" fill="#13120d"/>
    <path id="Path_1583" data-name="Path 1583" d="M91.086,11.072v23.24L63.947,11.072V43.441h4.3V20.408L95.386,43.44V11.072Z" fill="#13120d"/>
    <g id="Group_2498" data-name="Group 2498">
      <g id="Group_2497" data-name="Group 2497" clip-path="url(#clip-path)">
        <path id="Path_1584" data-name="Path 1584" d="M196.2,27.107a7.064,7.064,0,0,0-4.868-1.993h-9.012v0h-6.426c-2.141,0-2.917-2.725-2.917-4.556,0-.541.082-5.283,2.917-5.283h8.959v0h5.295a3.675,3.675,0,0,1,3.622,3.077l4.157-.034a7.81,7.81,0,0,0-7.779-7.219H175.782c-4.718,0-7.424,3.449-7.424,9.462,0,3.719,1.374,5.831,2.526,6.948a7.108,7.108,0,0,0,4.9,2h9.069v-.03h6.371c2.127,0,2.9,2.707,2.9,4.527,0,.537-.082,5.08-2.9,5.08h-7.974v0h-5.2a5.376,5.376,0,0,1-5.307-4.562h-4.356a9.71,9.71,0,0,0,9.663,8.891H191.33c4.689,0,7.378-3.428,7.378-9.4,0-3.7-1.365-5.8-2.51-6.905" fill="#13120d"/>
        <path id="Path_1585" data-name="Path 1585" d="M156.316,11.1H140.589v-.014h-4.3V43.441h4.3V29.515h15.727a7.115,7.115,0,0,0,4.9-2c1.152-1.117,2.525-3.229,2.525-6.948,0-6.014-2.706-9.463-7.424-9.463m-.109,14.018H140.589V15.278h15.618c2.835,0,2.917,4.743,2.917,5.284,0,1.831-.777,4.555-2.917,4.555" fill="#13120d"/>
      </g>
    </g>
  </g>
</svg>
