<svg xmlns="http://www.w3.org/2000/svg" xmlns:xlink="http://www.w3.org/1999/xlink" width="184.18" height="37.81" viewBox="0 0 184.18 37.81">
  <defs>
    <clipPath id="clip-path">
      <rect id="Rectangle_1045" data-name="Rectangle 1045" width="184.18" height="37.81" transform="translate(0 0)" fill="none"/>
    </clipPath>
  </defs>
  <g id="Group_2502" data-name="Group 2502" transform="translate(0 0)">
    <path id="Path_1586" data-name="Path 1586" d="M44.888,0,33.861,24.624l43.62-20.26L73.1,3.8l-5.594-.712Z" fill="#d2a1af"/>
    <path id="Path_1587" data-name="Path 1587" d="M55.811,5.256l-5.594-.712L27.6,1.452,16.569,26.076,60.189,5.815Z" fill="#a4445f"/>
    <path id="Path_1588" data-name="Path 1588" d="M0,28.009,43.62,7.748l-4.378-.559-5.594-.712L11.026,3.385Z" fill="#8e1537"/>
    <path id="Path_1589" data-name="Path 1589" d="M133.5,32.4l-2.771,5.389h4.811l11.077-22.994,11.051,22.994h4.81L159.733,32.4,146.617,5.441Z" fill="#13120d"/>
    <g id="Group_2501" data-name="Group 2501">
      <g id="Group_2500" data-name="Group 2500" clip-path="url(#clip-path)">
        <path id="Path_1590" data-name="Path 1590" d="M127.912,5.468H112.185V5.454h-4.3V37.81h4.3V23.884h15.727a7.11,7.11,0,0,0,4.9-2.005c1.153-1.117,2.526-3.229,2.526-6.948,0-6.014-2.706-9.463-7.424-9.463M127.8,19.486H112.185V9.647H127.8c2.835,0,2.917,4.743,2.917,5.284,0,1.831-.777,4.555-2.917,4.555" fill="#13120d"/>
        <path id="Path_1591" data-name="Path 1591" d="M97.658,33.467c.4-.372.787-.764,1.151-1.174l.242-.29a16.027,16.027,0,0,0,3.79-10.4v-.823h.028a16.169,16.169,0,1,0-16.4,16.967l-.02.035h16.846V33.467Zm-22.8-11.809A11.812,11.812,0,1,1,86.985,33.47h-.314A11.826,11.826,0,0,1,74.859,21.658" fill="#13120d"/>
        <path id="Path_1592" data-name="Path 1592" d="M171.51,21.867l.88-1.115L184.18,5.481h-5.388l-9.455,12.263L159.881,5.481h-5.436l11.8,15.278.969,1.2V37.627h4.3Z" fill="#13120d"/>
      </g>
    </g>
  </g>
</svg>
